<svg width="140" height="140" viewBox="0 0 140 140" fill="none" xmlns="http://www.w3.org/2000/svg">
<g clip-path="url(#clip0_11_159)">
<path d="M137.357 63.7656L76.2341 2.6425C75.3972 1.80514 74.4034 1.14088 73.3097 0.687683C72.216 0.234484 71.0436 0.0012207 69.8597 0.0012207C68.6758 0.0012207 67.5035 0.234484 66.4098 0.687683C65.316 1.14088 64.3223 1.80514 63.4853 2.6425L50.7979 15.33L66.8979 31.43C70.6429 30.1175 74.9304 31.0144 77.9141 33.9981C79.3344 35.421 80.326 37.2147 80.7754 39.1743C81.2249 41.1338 81.1142 43.1803 80.456 45.08L95.9741 60.5981C99.7279 59.3031 104.059 60.1387 107.056 63.1444C108.052 64.1409 108.842 65.3239 109.381 66.6258C109.921 67.9277 110.198 69.3231 110.198 70.7322C110.197 72.1413 109.92 73.5365 109.38 74.8383C108.841 76.1401 108.05 77.3228 107.054 78.3191C106.057 79.3153 104.874 80.1055 103.572 80.6446C102.27 81.1836 100.875 81.4609 99.466 81.4607C98.0569 81.4605 96.6616 81.1828 95.3599 80.6434C94.0581 80.1039 92.8753 79.3134 91.8791 78.3169C88.7291 75.1669 87.9503 70.5294 89.5428 66.6487L75.0704 52.1762V90.2606C76.1209 90.7805 77.0811 91.4659 77.9141 92.2906C78.9103 93.2869 79.7006 94.4696 80.2398 95.7712C80.7789 97.0729 81.0564 98.468 81.0564 99.8769C81.0564 101.286 80.7789 102.681 80.2398 103.983C79.7006 105.284 78.9103 106.467 77.9141 107.463C76.9179 108.459 75.7351 109.25 74.4335 109.789C73.1318 110.328 71.7368 110.605 70.3279 110.605C68.919 110.605 67.5239 110.328 66.2222 109.789C64.9206 109.25 63.7378 108.459 62.7416 107.463C61.7442 106.468 60.9529 105.285 60.413 103.983C59.8731 102.682 59.5952 101.286 59.5952 99.8769C59.5952 98.4676 59.8731 97.0722 60.413 95.7704C60.9529 94.4687 61.7442 93.2862 62.7416 92.2906C63.7785 91.2581 64.9291 90.475 66.2547 89.95V51.5112C64.9772 50.9862 63.7785 50.2119 62.7416 49.1706C61.2352 47.666 60.2109 45.7469 59.7995 43.6579C59.3881 41.5689 59.6082 39.4047 60.4316 37.4412L44.5503 21.5687L2.63785 63.4375C1.79983 64.2745 1.13503 65.2685 0.681439 66.3627C0.227853 67.4568 -0.00561523 68.6296 -0.00561523 69.8141C-0.00561523 70.9985 0.227853 72.1713 0.681439 73.2654C1.13503 74.3596 1.79983 75.3536 2.63785 76.1906L63.7653 137.309C64.6023 138.147 65.596 138.811 66.6898 139.264C67.7835 139.717 68.9558 139.951 70.1397 139.951C71.3236 139.951 72.4959 139.717 73.5897 139.264C74.6834 138.811 75.6772 138.147 76.5141 137.309L137.357 76.5625C138.195 75.7255 138.86 74.7315 139.314 73.6373C139.767 72.5432 140.001 71.3704 140.001 70.1859C140.001 69.0015 139.767 67.8287 139.314 66.7345C138.86 65.6404 138.195 64.6464 137.357 63.8094" fill="#F03C2E"/>
</g>
<defs>
<clipPath id="clip0_11_159">
<rect width="140" height="140" fill="white"/>
</clipPath>
</defs>
</svg>
