<svg width="196" height="73" viewBox="0 0 196 73" fill="none" xmlns="http://www.w3.org/2000/svg">
<path d="M111.43 5.0643L111.859 5.35016C116.891 8.67363 120.5 13.2315 122.874 18.739C123.443 19.5936 123.064 20.0684 121.924 20.3533L119.995 20.8467C115.635 21.97 112.175 22.9146 107.872 24.0379L105.418 24.6774C104.534 24.896 104.29 24.8041 103.35 23.7339L103.218 23.5818C101.877 22.0625 100.873 21.0479 99.097 20.1421L98.7547 19.9734C92.7724 17.0298 86.9801 17.8844 81.5676 21.3978C75.1105 25.5759 71.7871 31.748 71.882 39.4395C71.977 47.036 77.1996 53.3031 84.7011 54.3477C91.1582 55.2023 96.5707 52.9233 100.844 48.0805C101.698 47.036 102.458 45.8965 103.408 44.5672H85.081C83.0869 44.5672 82.6121 43.3327 83.2768 41.7185L83.606 40.9436C84.8263 38.1042 86.7192 34.0229 87.9486 31.6894L88.2168 31.1872C88.545 30.6181 89.2116 29.8489 90.4935 29.8489L121.052 29.8487C122.424 25.5006 124.651 21.3921 127.621 17.5046C134.553 8.38876 142.909 3.64094 154.209 1.64685C163.895 -0.062361 173.011 0.887203 181.272 6.48963C188.773 11.6173 193.426 18.5491 194.661 27.6649C196.275 40.484 192.572 50.9292 183.741 59.8551C177.474 66.2172 169.782 70.2054 160.951 72.0096C158.387 72.4844 155.823 72.5793 153.355 72.8642C144.714 72.6743 136.832 70.2054 130.185 64.508C125.51 60.4669 122.29 55.5001 120.69 49.7179C119.579 51.9606 118.252 54.1085 116.701 56.1518C109.865 65.1727 100.939 70.7751 89.6389 72.2944C80.3331 73.5289 71.6921 71.7247 64.0956 66.0273C57.0688 60.7097 53.0806 53.683 52.0361 44.947C50.8017 34.5967 53.8403 25.291 60.1074 17.1248C66.8493 8.2938 75.7752 2.69138 86.6952 0.69729C95.4558 -0.887075 103.851 0.0897777 111.43 5.0643ZM156.602 18.6714L156.298 18.739C147.467 20.7331 141.77 26.3355 139.681 35.2614C137.972 42.668 141.58 50.1696 148.417 53.2082C153.639 55.4871 158.862 55.2023 163.895 52.6385C171.396 48.7452 175.479 42.668 175.954 34.5018C175.859 33.2673 175.859 32.3178 175.669 31.3682C173.979 22.0732 165.512 16.77 156.602 18.6714ZM44.3447 36.0211C44.7245 36.0211 44.9144 36.3059 44.9144 36.6858L44.7245 38.9647C44.7245 39.3446 44.3447 39.6294 44.0598 39.6294L23.3593 39.5345C22.9795 39.5345 22.8845 39.2496 23.0744 38.9647L24.4038 36.5908C24.5937 36.306 24.9735 36.0211 25.3534 36.0211H44.3447ZM46.4337 27.2851C46.8135 27.2851 47.0034 27.57 46.9085 27.8548L46.1488 30.1338C46.0539 30.5136 45.674 30.7035 45.2942 30.7035L0.379826 30.7985C0 30.7985 -0.0949564 30.6086 0.0949564 30.3237L2.08904 27.7599C2.27895 27.475 2.75374 27.2851 3.13356 27.2851H46.4337ZM51.3714 18.5491C51.7513 18.5491 51.8462 18.834 51.6563 19.1188L50.042 21.5877C49.8521 21.8726 49.3773 22.1574 49.0925 22.1574L14.7182 22.0625C14.3384 22.0625 14.2435 21.8726 14.4334 21.5877L16.4275 19.0239C16.6174 18.739 17.0922 18.5491 17.472 18.5491H51.3714Z" fill="#00ACD7"/>
</svg>
