<svg width="158" height="160" viewBox="0 0 158 160" fill="none" xmlns="http://www.w3.org/2000/svg">
<g clip-path="url(#clip0_11_178)">
<path d="M57.3836 123.7C57.3836 123.7 51.3105 127.44 61.6052 128.51C73.9983 130.11 80.5997 129.845 94.3161 127.175C97.0728 128.885 99.9884 130.316 103.021 131.45C72.1615 144.81 33.1108 130.65 57.3836 123.7ZM53.4336 106.335C53.4336 106.335 46.8371 111.41 57.1268 112.485C70.5815 113.82 81.133 114.085 99.3425 110.35C101.113 112.169 103.282 113.541 105.672 114.355C68.4732 125.575 26.7908 115.42 53.4336 106.335ZM126.247 136.785C126.247 136.785 130.73 140.525 121.235 143.465C103.559 148.815 47.1037 150.415 31.2741 143.465C25.7342 141.065 36.2857 137.59 39.6678 137.055C43.0994 136.255 44.951 136.255 44.951 136.255C38.8778 131.98 4.5869 145.07 27.5413 148.805C90.5932 159.225 142.565 144.265 126.207 136.785H126.247ZM60.2375 88.165C60.2375 88.165 31.4815 95.115 49.9477 97.515C57.8625 98.585 73.4255 98.315 87.9368 97.25C99.8066 96.18 111.686 94.05 111.686 94.05C111.686 94.05 107.465 95.92 104.561 97.79C75.282 105.54 19.0834 102.065 35.1797 94.05C48.896 87.37 60.2424 88.175 60.2424 88.175L60.2375 88.165ZM111.686 117.285C141.232 101.785 127.516 86.835 118.016 88.7C115.646 89.235 114.585 89.77 114.585 89.77C114.585 89.77 115.375 88.17 117.221 87.635C135.954 80.955 150.727 107.67 111.148 118.085C111.148 118.085 111.41 117.82 111.676 117.285H111.686ZM63.1506 159.495C91.64 161.365 135.174 158.425 136.226 144.795C136.226 144.795 134.117 150.145 112.748 154.145C88.475 158.685 58.4007 158.145 40.7245 155.215C40.7245 155.215 44.4177 158.42 63.1506 159.495Z" fill="#4E7896"/>
<path d="M93.7928 0.00500488C93.7928 0.00500488 110.151 16.835 78.2298 42.215C52.6387 62.785 72.4282 74.54 78.2298 87.9C63.1901 74.275 52.377 62.25 59.7635 51.035C70.5766 34.465 100.389 26.5 93.7928 0.00500488ZM85.399 76.68C93.0521 85.495 83.2907 93.51 83.2907 93.51C83.2907 93.51 102.814 83.36 93.8421 70.8C85.6656 58.78 79.3259 52.9 113.627 32.865C113.627 32.865 59.5463 46.49 85.399 76.68Z" fill="#F58219"/>
</g>
<defs>
<clipPath id="clip0_11_178">
<rect width="158" height="160" fill="white"/>
</clipPath>
</defs>
</svg>
