<svg width="149" height="157" viewBox="0 0 149 157" fill="none" xmlns="http://www.w3.org/2000/svg">
<path d="M110.487 114.291C111.436 105.969 111.15 104.755 117.029 106.098L118.525 106.239C123.047 106.453 128.961 105.472 132.494 103.773C139.973 100.118 144.408 94.0099 137.033 95.6167C120.213 99.2719 118.99 93.2679 118.99 93.2679C136.76 65.4862 144.192 30.2226 137.773 21.5937C120.288 -1.95632 90.0169 9.18087 89.5106 9.47525L89.3476 9.50591C86.03 8.76997 82.3632 8.34068 78.1144 8.27935C70.5014 8.15669 64.7277 10.3829 60.3391 13.8847C60.3391 13.8847 6.34411 -9.55487 8.85266 43.3652C9.38813 54.625 24.1601 128.611 41.7956 106.226C48.2504 98.0453 54.4781 91.1337 54.4781 91.1337C57.5629 93.2985 61.2704 94.4024 65.1525 94.0038L65.4552 93.734C65.3656 94.794 65.4067 95.8618 65.5774 96.9108C61.0376 102.259 62.3763 103.197 53.2966 105.166C44.1121 107.159 49.5134 110.71 53.0288 111.642C57.3009 112.77 67.1838 114.365 73.8656 104.515L73.5978 105.638C75.3788 107.14 75.2566 116.431 75.5185 123.067C75.7804 129.703 76.1937 135.903 77.48 139.552C78.7663 143.201 80.2737 152.615 92.2054 149.978C102.176 147.727 109.8 144.483 110.499 114.346" fill="black"/>
<path d="M110.487 114.291C111.436 105.969 111.15 104.755 117.029 106.098L118.525 106.239C123.047 106.453 128.961 105.472 132.494 103.773C139.973 100.118 144.408 94.0099 137.033 95.6167C120.213 99.2719 118.99 93.2679 118.99 93.2679C136.76 65.4862 144.192 30.2226 137.773 21.5937C120.288 -1.95632 90.0169 9.18087 89.5106 9.47525L89.3476 9.50591C86.03 8.76997 82.3632 8.34068 78.1144 8.27935C70.5014 8.15669 64.7277 10.3829 60.3391 13.8847C60.3391 13.8847 6.34411 -9.55487 8.85266 43.3652C9.38813 54.625 24.1601 128.611 41.7956 106.226C48.2504 98.0453 54.4781 91.1337 54.4781 91.1337C57.5629 93.2985 61.2704 94.4024 65.1525 94.0038L65.4552 93.734C65.3656 94.794 65.4067 95.8618 65.5774 96.9108C61.0376 102.259 62.3763 103.197 53.2966 105.166C44.1121 107.159 49.5134 110.71 53.0288 111.642C57.3009 112.77 67.1838 114.365 73.8656 104.515L73.5978 105.638C75.3788 107.14 75.2566 116.431 75.5185 123.067C75.7804 129.703 76.1937 135.903 77.48 139.552C78.7663 143.201 80.2737 152.615 92.2054 149.978C102.176 147.727 109.8 144.483 110.499 114.346" stroke="black" stroke-width="5.3725"/>
<path d="M136.981 95.6719C120.16 99.327 118.938 93.323 118.938 93.323C136.708 65.5414 144.14 30.2777 137.726 21.6488C120.242 -1.90117 89.9704 9.24215 89.464 9.5304L89.3011 9.56106C85.6037 8.77935 81.8446 8.36662 78.0737 8.32836C70.4607 8.20571 64.687 10.4319 60.2984 13.9338C60.2984 13.9338 6.29759 -9.50585 8.81196 43.4142C9.34743 54.674 24.1194 128.66 41.7549 106.276C48.2504 98.0453 54.4781 91.1336 54.4781 91.1336C57.5629 93.2985 61.2704 94.4024 65.1526 94.0037L65.4552 93.7339C65.3663 94.794 65.4074 95.8617 65.5775 96.9107C61.0376 102.259 62.3763 103.197 53.2966 105.165C44.1122 107.159 49.5134 110.71 53.0289 111.642C57.301 112.77 67.1839 114.365 73.8656 104.515L73.5979 105.638C75.3789 107.14 76.6244 115.407 76.4149 122.902C76.2054 130.396 76.0657 135.535 77.4626 139.558C78.8594 143.581 80.2563 152.621 92.1879 149.984C102.158 147.733 107.321 141.889 108.048 132.162C108.56 125.244 109.713 126.262 109.794 120.08L110.726 117.149C111.791 107.766 110.9 104.742 117.041 106.153L118.536 106.294C123.059 106.509 128.978 105.527 132.447 103.829C139.926 100.173 144.355 94.0651 136.981 95.6719Z" fill="#336791"/>
<path d="M74.5815 100.989C74.1159 118.443 74.6979 136.02 76.3159 140.239C77.934 144.458 81.4087 152.811 93.3462 150.125C103.316 147.874 106.948 143.514 108.52 133.892L112.204 103.123M60.2752 13.4922C60.2752 13.4922 6.23937 -9.78796 8.75374 43.1321C9.28921 54.3919 24.0612 128.378 41.6967 105.993C48.134 97.8184 53.9543 91.4218 53.9543 91.4218M89.4582 9.24215C87.5957 9.85543 119.514 -3.05414 137.662 21.3729C144.064 30.0017 136.643 65.2654 118.874 93.047" stroke="white" stroke-width="1.79" stroke-linecap="round" stroke-linejoin="round"/>
<path d="M118.88 93.0348C118.88 93.0348 120.044 99.045 136.923 95.3776C144.297 93.7708 139.856 99.879 132.383 103.534C126.248 106.539 112.489 107.306 112.262 103.166C111.68 92.4645 119.503 95.7149 118.938 93.0348C118.426 90.6185 114.922 88.2512 112.617 82.3392C110.598 77.1876 84.9126 37.631 119.741 43.5001C121.022 43.2241 110.662 8.54306 78.0679 8.04017C45.4741 7.53728 46.5043 50.2646 46.5043 50.2646" stroke="white" stroke-width="1.79" stroke-linecap="round" stroke-linejoin="bevel"/>
<path d="M65.461 96.7022C60.9212 102.05 62.2599 102.988 53.1802 104.957C43.9957 106.95 49.397 110.501 52.9124 111.433C57.1846 112.562 67.0674 114.156 73.7492 104.301C75.7863 101.296 73.7375 96.512 70.9438 95.2977C69.5935 94.709 67.7892 93.9731 65.4727 96.7083L65.461 96.7022Z" stroke="white" stroke-width="1.79" stroke-linejoin="round"/>
<path d="M65.1642 96.6102C64.6986 93.4641 66.142 89.7292 67.6844 85.3504C70.0009 78.7882 75.3439 72.2261 71.0718 51.393C67.8881 35.877 46.5101 48.161 46.5101 50.2645C46.5101 52.3681 47.4763 60.9356 46.1609 70.9015C44.4323 83.9153 54.0183 94.9175 65.0536 93.7952" stroke="white" stroke-width="1.79" stroke-linecap="round" stroke-linejoin="round"/>
<path d="M60.0773 49.9517C59.9783 50.6692 61.3286 52.5888 63.0805 52.8464C64.8325 53.1039 66.3283 51.6075 66.4272 50.8839C66.5262 50.1602 65.1759 49.3752 63.4239 49.1176C61.672 48.86 60.1646 49.2403 60.0773 49.9517Z" fill="white" stroke="white" stroke-width="0.5975"/>
<path d="M113.415 48.486C113.508 49.2035 112.163 51.1231 110.411 51.3807C108.659 51.6382 107.152 50.1418 107.065 49.4182C106.977 48.6945 108.316 47.9095 110.068 47.6519C111.82 47.3943 113.327 47.7746 113.415 48.486Z" fill="white" stroke="white" stroke-width="0.2975"/>
<path d="M119.677 43.5123C119.968 49.1545 118.525 52.9875 118.339 58.9916C118.071 67.7124 122.285 77.6966 115.935 87.6931" stroke="white" stroke-width="1.79" stroke-linecap="round" stroke-linejoin="round"/>
</svg>
