<svg width="130" height="130" viewBox="0 0 130 130" fill="none" xmlns="http://www.w3.org/2000/svg">
<path d="M64.5314 0C31.5293 2.35175e-06 33.5902 14.3117 33.5902 14.3117L33.6269 29.1385H65.12V33.5902H21.118C21.118 33.5902 0 31.1952 0 64.4946C-2.35684e-06 97.794 18.4323 96.6131 18.4323 96.6131H29.4328V81.1609C29.4328 81.1609 28.8398 62.7286 47.5707 62.7286H78.8063C78.8063 62.7286 96.3556 63.0123 96.3556 45.768V17.255C96.3556 17.255 99.02 0 64.5314 0ZM47.166 9.97036C50.2994 9.97036 52.8318 12.5028 52.8318 15.6362C52.8318 18.7695 50.2994 21.302 47.166 21.302C44.0327 21.302 41.5002 18.7695 41.5002 15.6362C41.5002 12.5028 44.0327 9.97036 47.166 9.97036Z" fill="url(#paint0_linear_11_54)"/>
<path d="M65.4686 129.323C98.4707 129.323 96.4098 115.011 96.4098 115.011L96.373 100.185H64.8799V95.7329H108.882C108.882 95.7329 130 98.1278 130 64.8284C130 31.529 111.568 32.7099 111.568 32.7099H100.567V48.1621C100.567 48.1621 101.16 66.5944 82.4292 66.5944H51.1937C51.1937 66.5944 33.6444 66.3107 33.6444 83.555V112.068C33.6444 112.068 30.9799 129.323 65.4686 129.323ZM82.8339 119.353C79.7006 119.353 77.1681 116.82 77.1681 113.687C77.1681 110.554 79.7006 108.021 82.8339 108.021C85.9673 108.021 88.4998 110.554 88.4998 113.687C88.4998 116.82 85.9673 119.353 82.8339 119.353Z" fill="url(#paint1_linear_11_54)"/>
<defs>
<linearGradient id="paint0_linear_11_54" x1="3198.27" y1="2966.23" x2="19690.5" y2="19230.1" gradientUnits="userSpaceOnUse">
<stop stop-color="#387EB8"/>
<stop offset="1" stop-color="#366994"/>
</linearGradient>
<linearGradient id="paint1_linear_11_54" x1="4754.13" y1="5102.94" x2="22465" y2="21780.2" gradientUnits="userSpaceOnUse">
<stop stop-color="#FFE052"/>
<stop offset="1" stop-color="#FFC331"/>
</linearGradient>
</defs>
</svg>
