<svg width="129" height="136" viewBox="0 0 129 136" fill="none" xmlns="http://www.w3.org/2000/svg">
<g clip-path="url(#clip0_11_91)">
<path d="M123.946 104.438C117.062 108.84 81.399 126.828 73.8064 131.684C66.2143 136.54 61.9965 136.493 55.9988 132.976C50.0012 129.458 12.0498 110.652 5.21358 106.643C1.79648 104.64 0 102.949 0 101.352V85.3556C0 85.3556 49.4075 72.1601 57.3841 68.65C65.3602 65.1392 68.1277 65.0125 74.9156 68.0627C81.7039 71.1135 122.291 80.0972 129 83.1115C129 83.1115 128.997 97.3982 128.997 98.8812C128.998 100.463 127.45 102.197 123.946 104.438Z" fill="#912626"/>
<path d="M123.943 88.5361C117.059 92.9363 81.398 110.925 73.8056 115.781C66.2138 120.638 61.9961 120.59 55.9986 117.073C50.0006 113.558 12.051 94.7482 5.215 90.7418C-1.62099 86.7328 -1.7646 83.9739 4.95095 80.7482C11.666 77.5213 49.4075 59.3561 57.3849 55.8454C65.3607 52.336 68.1276 52.2081 74.9152 55.2594C81.7034 58.3095 117.152 75.6192 123.86 78.6328C130.57 81.6502 130.827 84.134 123.943 88.5361Z" fill="#C6302B"/>
<path d="M123.946 78.5551C117.062 82.9573 81.399 100.946 73.8064 105.803C66.2143 110.658 61.9965 110.611 55.9988 107.093C50.0007 103.577 12.0498 84.7693 5.21358 80.7608C1.79648 78.7572 0 77.0683 0 75.4709V59.4731C0 59.4731 49.4075 46.2782 57.3841 42.7674C65.3602 39.2573 68.1277 39.1299 74.9156 42.1801C81.7039 45.231 122.291 54.2128 129 57.2278C129 57.2278 128.997 71.5144 128.997 72.9993C128.998 74.5801 127.45 76.3147 123.946 78.5551Z" fill="#912626"/>
<path d="M123.943 62.6535C117.059 67.0549 81.398 85.0427 73.8056 89.8998C66.2138 94.755 61.9961 94.7074 55.9986 91.1899C50.0006 87.675 12.051 68.8662 5.215 64.8591C-1.62099 60.8515 -1.7646 58.0919 4.95095 54.865C11.666 51.6399 49.4075 33.4734 57.3849 29.9634C65.3607 26.4534 68.1276 26.326 74.9152 29.3768C81.7034 32.4269 117.152 49.7353 123.86 52.7502C130.57 55.7663 130.827 58.252 123.943 62.6535Z" fill="#C6302B"/>
<path d="M123.946 51.7125C117.062 56.1147 81.399 74.1038 73.8064 78.961C66.2143 83.8163 61.9965 83.7687 55.9988 80.2511C50.0007 76.7354 12.0498 57.9267 5.21358 53.9195C1.79648 51.9153 0 50.2257 0 48.6295V32.6311C0 32.6311 49.4075 19.4368 57.3841 15.9267C65.3602 12.4159 68.1277 12.2892 74.9156 15.3394C81.7039 18.3902 122.291 27.3721 129 30.387C129 30.387 128.997 44.6737 128.997 46.158C128.998 47.7375 127.45 49.4721 123.946 51.7125Z" fill="#912626"/>
<path d="M123.943 35.8109C117.059 40.2124 81.398 58.2015 73.8056 63.0573C66.2138 67.9125 61.9961 67.8649 55.9986 64.3486C50.0011 60.8324 12.051 42.0249 5.215 38.0172C-1.62099 34.0095 -1.7646 31.2494 4.95095 28.0231C11.666 24.7974 49.4075 6.63277 57.3849 3.1215C65.3607 -0.389149 68.1276 -0.515258 74.9152 2.53547C81.7034 5.58619 117.152 22.8946 123.86 25.9095C130.57 28.9238 130.827 31.4095 123.943 35.8109Z" fill="#C6302B"/>
<path d="M80.2637 20.2499L69.1732 21.6626L66.6902 28.9913L62.6797 20.813L49.8732 19.401L59.4292 15.1735L56.5622 8.68384L65.5087 12.9763L73.9432 9.58859L71.6637 16.2991L80.2637 20.2499Z" fill="white"/>
<path d="M66.0277 55.8063L45.3287 45.2744L74.9892 39.6895L66.0277 55.8063Z" fill="white"/>
<path d="M37.3302 24.3234C46.0857 24.3234 53.1832 27.6988 53.1832 31.8619C53.1832 36.0256 46.0857 39.4005 37.3302 39.4005C28.5752 39.4005 21.4772 36.0256 21.4772 31.8619C21.4772 27.6988 28.5752 24.3234 37.3302 24.3234Z" fill="white"/>
<path d="M93.3712 22.2532L110.925 30.7633L93.3862 39.2649L93.3712 22.2532Z" fill="#621B1C"/>
<path d="M73.9507 31.6773L93.3712 22.2532L93.3862 39.2649L91.4822 40.1789L73.9507 31.6773Z" fill="#9A2928"/>
</g>
<defs>
<clipPath id="clip0_11_91">
<rect width="129" height="136" fill="white"/>
</clipPath>
</defs>
</svg>
