<svg width="143" height="143" viewBox="0 0 143 143" fill="none" xmlns="http://www.w3.org/2000/svg">
<path fill-rule="evenodd" clip-rule="evenodd" d="M24.4262 125.094C25.6702 126.091 27.2553 126.561 28.8417 126.403C30.4281 126.245 31.8895 125.472 32.9127 124.249C33.9359 123.027 34.4393 121.452 34.3152 119.863C34.191 118.273 33.449 116.796 32.2484 115.747C31.0478 114.698 29.484 114.161 27.8923 114.252C26.3006 114.342 24.8078 115.053 23.7337 116.231C22.6597 117.409 22.09 118.961 22.1468 120.555C22.2036 122.148 22.8823 123.655 24.0374 124.754L22.8487 123.708C8.81238 110.655 0 92.0428 0 71.4017C0 32.032 32.032 0 71.4106 0C91.4306 0 109.529 8.29847 122.511 21.6109C125.566 17.435 128.116 12.9125 130.108 8.13759C139.206 35.4774 144.555 58.4557 142.598 76.5542C139.952 113.529 109.046 142.826 71.4106 142.826C54.5997 142.837 38.3292 136.888 25.4898 126.037L24.4262 125.094ZM129.799 102.83C147.719 78.9852 137.731 40.4243 129.419 15.7792C122.015 31.2097 103.778 43.0117 88.0299 46.7476C73.2696 50.269 60.2075 47.3822 46.5465 52.6374C15.3993 64.6137 15.8909 101.758 33.0509 110.106C33.0598 110.106 34.0787 110.66 34.0653 110.642C34.0653 110.633 59.2869 105.628 73.2294 100.48C93.6069 92.9545 115.977 74.4047 123.338 52.8564C119.418 75.2672 100.18 96.8289 80.8531 106.732C70.566 112.014 62.567 113.189 45.6393 119.047C43.5658 119.754 41.9392 120.451 41.9392 120.451C46.2292 119.736 50.5058 119.503 50.5058 119.503C74.6058 118.364 112.206 126.278 129.804 102.835L129.799 102.83Z" fill="#70AD51"/>
</svg>
