<svg width="111" height="111" viewBox="0 0 111 111" fill="none" xmlns="http://www.w3.org/2000/svg">
<path d="M0 55.5V111H55.5H111V55.5V0H55.5H0V55.5Z" fill="#007ACC"/>
<path d="M24.5463 55.8682L24.511 60.4139H31.7348H38.9586V80.9401V101.466H44.0682H49.1777V80.9401V60.4139H56.4015H63.6253V55.9563C63.6253 53.4896 63.5724 51.4282 63.502 51.3754C63.4491 51.3049 54.6572 51.2696 43.9977 51.2873L24.5991 51.3401L24.5463 55.8682Z" fill="white"/>
<path d="M89.566 51.211C92.3851 51.9158 94.5346 53.1667 96.5079 55.2105C97.5298 56.3029 99.0451 58.2938 99.1684 58.7696C99.2036 58.9105 94.376 62.1524 91.4513 63.9672C91.3456 64.0377 90.9227 63.5796 90.447 62.8748C89.0198 60.7958 87.5222 59.8972 85.2317 59.7386C81.8665 59.5096 79.6994 61.2715 79.717 64.2138C79.717 65.0772 79.8403 65.5881 80.1927 66.2929C80.9327 67.8258 82.307 68.7419 86.6236 70.6096C94.5698 74.0277 97.9703 76.2829 100.085 79.4896C102.446 83.0662 102.974 88.7748 101.371 93.021C99.6089 97.6372 95.2394 100.773 89.0903 101.813C87.1875 102.148 82.677 102.095 80.6332 101.725C76.1756 100.932 71.947 98.7296 69.3394 95.84C68.3175 94.7124 66.3265 91.77 66.4498 91.5586C66.5027 91.4881 66.9608 91.2062 67.4717 90.9067C67.9651 90.6248 69.8327 89.55 71.5946 88.5281L74.7837 86.6781L75.4532 87.6648C76.387 89.0919 78.4308 91.0477 79.6641 91.6996C83.2056 93.5672 88.0684 93.3029 90.4646 91.1534C91.4865 90.2196 91.9094 89.2505 91.9094 87.8234C91.9094 86.5372 91.7508 85.9734 91.0813 85.0043C90.2179 83.771 88.456 82.7315 83.4522 80.5643C77.726 78.0977 75.2594 76.5648 73.0041 74.1334C71.7003 72.7238 70.467 70.4686 69.956 68.5834C69.5332 67.0153 69.4275 63.0862 69.7622 61.5005C70.9427 55.9681 75.1184 52.1096 81.1441 50.9643C83.0998 50.5943 87.6456 50.7353 89.566 51.211Z" fill="white"/>
</svg>
